<?xml version="1.0" encoding="utf-8"?>
<svg xmlns="http://www.w3.org/2000/svg" xmlns:xlink="http://www.w3.org/1999/xlink" version="1.1" x="0px" y="0px" viewBox="0 0 100 125" enable-background="new 0 0 100 100" xml:space="preserve">
	<g>
		<path fill="#000000" d="M73.1,30.9v-0.5c0-3.3-2.5-5.9-5.7-5.9h-15c-2.7-6.8-9.2-11.6-16.9-11.6c-3.6,0-7.1,1-10.1,3   c-0.6,0.4-0.7,1.2-0.3,1.7c0.1,0.2,0.3,0.3,0.5,0.4c0.4,0.2,0.9,0.2,1.3,0c2.6-1.7,5.6-2.6,8.7-2.6c3.8,0,7.5,1.4,10.3,3.9   c3.3,2.9,5.2,7,5.3,11.4c0.1,5.6-2.8,11-7.7,13.9c-2.4,1.4-5.2,2.2-8,2.2c-3.1,0-6.1-0.9-8.7-2.6c-3.9-2.6-6.6-6.9-6.9-11.8   c0,0,3.7,0,3.7,0c0.7,0,1.2-0.6,1.2-1.2c0-0.3-0.1-0.6-0.3-0.8l-2.9-4.9l-2-3.5c-0.4-0.8-1.7-0.8-2.2,0l-5,8.6   c-0.2,0.4-0.2,0.9,0,1.2c0.2,0.4,0.6,0.6,1.1,0.6h3.8c0.4,6.4,4.1,11.9,9.4,14.8v26.9c0,3.1,2.2,5.6,5.1,5.9c0.2,3,2.6,5.3,5.6,5.3   h32.5c4.4,0,8.1-3.6,8.1-8.1V36.5C78.2,33.6,76,31.2,73.1,30.9z M15.8,29.8l2.8-4.9l1.7,3l1.1,1.9h-2.1H15.8z M33.3,77.3   c-0.4,0-0.8,0-1.3-0.1c-1.5-0.3-2.6-1.7-2.6-3.3V48.1c0.8,0.3,1.7,0.6,2.6,0.7c0.4,0.1,0.8,0.1,1.2,0.2c0.4,0.1,0.8,0.1,1.2,0.1   c0.4,0,0.7,0.1,1.1,0.1c6.4,0,12.1-3.4,15.3-8.4h13.5c0.7,0,1.2-0.6,1.2-1.2c0-0.7-0.6-1.2-1.2-1.2H52.3c0.7-1.6,1.1-3.2,1.4-5   c0.1-0.4,0.1-0.8,0.1-1.2c0-0.3,0.1-0.7,0.1-1c0-0.1,0-0.1,0-0.2c0-1.3-0.2-2.7-0.5-3.9h14.2c1.7,0,3.2,1.5,3.2,3.4v0.5v1.2v1.2   c0,0,0,40.5,0,40.6c0,1-0.4,1.9-1.1,2.6c-1.2,1.1-3.1,0.8-4.6,0.8c-0.9,0-1.9,0-2.8,0c-1.2,0-2.3,0-3.5,0c-1.3,0-2.7,0-4,0   c-1.4,0-2.8,0-4.2,0c-1.4,0-2.8,0-4.2,0c-1.3,0-2.6,0-3.9,0c-1.1,0-2.2,0-3.4,0c-1.2,0-2.4,0-3.6,0C34.7,77.3,34,77.4,33.3,77.3z    M75.7,77.1c0,3.1-2.5,5.6-5.6,5.6H37.7c-1.6,0-3-1.2-3.1-2.8h32.9c3.1,0,5.7-2.6,5.7-5.9V33.4c1.5,0.3,2.6,1.5,2.6,3.1V77.1z"/>
		<path fill="#000000" d="M52.1,48.2h12.3c0.7,0,1.2-0.6,1.2-1.2c0-0.7-0.6-1.2-1.2-1.2H52.1c-0.7,0-1.2,0.6-1.2,1.2   C50.8,47.6,51.4,48.2,52.1,48.2z"/>
		<path fill="#000000" d="M64.4,53H37.1c-0.7,0-1.2,0.6-1.2,1.2s0.6,1.2,1.2,1.2h27.3c0.7,0,1.2-0.6,1.2-1.2S65.1,53,64.4,53z"/>
		<path fill="#000000" d="M64.4,60.4H37.1c-0.7,0-1.2,0.6-1.2,1.2c0,0.7,0.6,1.2,1.2,1.2h27.3c0.7,0,1.2-0.6,1.2-1.2   C65.6,60.9,65.1,60.4,64.4,60.4z"/>
		<path fill="#000000" d="M64.4,67.7H37.1c-0.7,0-1.2,0.6-1.2,1.2s0.6,1.2,1.2,1.2h27.3c0.7,0,1.2-0.6,1.2-1.2S65.1,67.7,64.4,67.7z"/>
		<path fill="#000000" d="M36,30.6c0,0,0-3.7,0-3.7c0-0.4,0-0.8,0-1.2c0-1.2,0-2.4,0-3.7c0-0.7-0.6-1.2-1.2-1.2s-1.2,0.6-1.2,1.3   c0,1.2,0,2.4,0,3.7v1.2c0,0,0,3.8,0,3.9c0,0.6,0.2,1.1,0.7,1.5c0.7,0.6,1.5,1.1,2.2,1.7c1.5,1.1,3,2.3,4.5,3.4   c0.2,0.1,0.4,0.3,0.5,0.4c0.2,0.2,0.5,0.3,0.8,0.3c0.4,0,0.8-0.2,1-0.5c0.4-0.5,0.3-1.3-0.2-1.8c-1.2-0.9-2.4-1.8-3.6-2.7L36,30.6z   "/>
	</g>
	<text x="0" y="115" fill="#000000" font-size="5px" font-weight="bold" font-family="'Helvetica Neue', Helvetica, Arial-Unicode, Arial, Sans-serif">Created by Yu Luck</text>
	<text x="0" y="120" fill="#000000" font-size="5px" font-weight="bold" font-family="'Helvetica Neue', Helvetica, Arial-Unicode, Arial, Sans-serif">from the Noun Project</text>
</svg>