<?xml version="1.0" encoding="utf-8"?>
<svg version="1.1" xmlns="http://www.w3.org/2000/svg" xmlns:xlink="http://www.w3.org/1999/xlink" x="0px" y="0px" width="272" height="272" viewBox="8 8 264 264" enable-background="new 0 0 272 272" xml:space="preserve">
	<metadata>SVG Vector Icons: http://www.onlinewebfonts.com/icon</metadata>
	<g>
		<g>
			<path fill="#FFFFFF" d="M198.8,39.6h-36C160.1,22.8,145.5,10,128,10l0,0c-17.5,0-32.1,12.8-34.8,29.6h-36c-13,0-23.6,10.6-23.6,23.6v159.2c0,13,10.6,23.6,23.6,23.6h141.6c13,0,23.6-10.6,23.6-23.6V63.2C222.4,50.1,211.8,39.6,198.8,39.6z M128,27.7c7.7,0,14.2,4.9,16.6,11.8h-33.2C113.8,32.6,120.3,27.7,128,27.7z M204.7,222.4c0,3.3-2.6,5.9-5.9,5.9H57.2c-3.3,0-5.9-2.6-5.9-5.9V63.2c0-3.3,2.6-5.9,5.9-5.9h141.6c3.3,0,5.9,2.6,5.9,5.9V222.4z M83.5,81.2c-8.1,0-14.7,6.6-14.7,14.7c0,8.1,6.6,14.7,14.7,14.7c8.1,0,14.7-6.6,14.7-14.7C98.2,87.7,91.6,81.2,83.5,81.2z M178.3,87h-59c-4.9,0-8.9,4-8.9,8.9c0,4.9,4,8.9,8.9,8.9h59c4.9,0,8.8-4,8.8-8.9C187.1,91,183.2,87,178.3,87z M83.5,128.1c-8.1,0-14.7,6.6-14.7,14.7c0,8.1,6.6,14.7,14.7,14.7c8.1,0,14.7-6.6,14.7-14.7C98.2,134.7,91.6,128.1,83.5,128.1z M178.3,134h-59c-4.9,0-8.9,4-8.9,8.9l0,0c0,4.9,4,8.8,8.9,8.8h59c4.9,0,8.8-4,8.8-8.8l0,0C187.2,138,183.2,134,178.3,134z M83.5,175.7c-8.1,0-14.7,6.6-14.7,14.7c0,8.1,6.6,14.7,14.7,14.7c8.1,0,14.7-6.6,14.7-14.7C98.2,182.3,91.6,175.7,83.5,175.7z M178.3,181.6h-59c-4.9,0-8.9,4-8.9,8.9l0,0c0,4.9,4,8.9,8.9,8.9h59c4.9,0,8.8-4,8.8-8.9l0,0C187.2,185.6,183.2,181.6,178.3,181.6z"/>
		</g>
	</g>
</svg>